<svg width="80" height="80" viewBox="0 0 80 80" fill="none" xmlns="http://www.w3.org/2000/svg">
<rect width="80" height="80" rx="12" fill="#FF7347"/>
<path fill-rule="evenodd" clip-rule="evenodd" d="M27.0808 12.1297C26.3524 12.3778 25.5284 12.9817 25.154 13.5421C24.7959 14.078 24.1749 15.7791 24.172 16.2321C24.171 16.3897 24.1341 16.652 24.09 16.8148C24.0238 17.0597 23.9651 17.0873 23.752 16.9744C23.1886 16.6758 21.7789 16.2915 20.9969 16.2235C19.5619 16.0989 18.0586 16.841 17.359 18.0198C16.995 18.6331 16.9868 18.6917 17.0056 20.5768C17.0377 23.821 17.8653 27.5814 19.1048 30.1155C20.4821 32.9319 22.7662 34.9804 25.2486 35.6261C26.2164 35.8777 28.6558 35.8435 29.7771 35.5625C30.3096 35.429 30.7998 35.3407 30.8663 35.3661C31.075 35.4458 32.5694 37.2335 33.2336 38.198C34.0201 39.3396 35.0579 41.3807 35.437 42.5307C36.0518 44.3954 36.1465 45.1438 36.2236 48.7408L36.2983 52.2234L34.3672 52.2667C32.4846 52.309 32.4235 52.3196 31.9389 52.6866C31.3672 53.1199 30.8337 54.1047 30.9224 54.5638C30.9825 54.8756 30.975 54.8775 29.4928 54.9249C27.7565 54.9805 27.1752 55.2308 26.7171 56.1201C26.4605 56.6183 26.4494 56.8598 26.4862 61.1401L26.5249 65.6366L26.892 66.1131C27.6242 67.0634 27.0375 67.0249 40.1608 66.9833C51.6389 66.947 51.9267 66.9398 52.372 66.6799C52.623 66.5336 52.9555 66.2448 53.1109 66.0383C53.3835 65.6766 53.3951 65.4991 53.4324 61.1425C53.4707 56.6664 53.4681 56.6168 53.1688 56.0894C52.6797 55.2273 52.1561 54.9937 50.526 54.9101L49.1244 54.8381L48.9426 54.1325C48.7215 53.275 48.4421 52.8802 47.8002 52.5187C47.3717 52.2774 47.0848 52.2436 45.4654 52.2436H43.6191L43.6918 49.2831C43.8422 43.1464 44.6741 40.7053 48.0697 36.4359C48.7653 35.5612 49.0059 35.3443 49.2231 35.3959C50.9825 35.8134 53.2169 35.9071 54.6028 35.6213C56.979 35.1313 59.3962 32.9652 60.7754 30.0901C61.3803 28.8292 62.033 26.7953 62.3874 25.0666C62.6559 23.757 62.9991 20.8691 63 19.9123C63.0017 17.9177 61.5704 16.3743 59.5774 16.2217C58.6955 16.1542 57.2955 16.423 56.3329 16.8448L55.7533 17.0986L55.6687 16.6091C55.4649 15.4296 55.191 14.414 54.9513 13.9486C54.539 13.1483 53.6126 12.388 52.8464 12.2212C51.797 11.9927 27.734 11.9073 27.0808 12.1297ZM39.3953 20.3439C39.2442 20.5085 38.9254 21.1523 38.6869 21.7743C38.4485 22.3963 38.1979 22.9724 38.1302 23.0544C38.0625 23.1365 37.472 23.2715 36.8179 23.3546C34.0735 23.7032 33.8478 24.2263 35.793 25.7302C36.3112 26.1309 36.7784 26.5335 36.8315 26.6251C36.8846 26.7167 36.8352 27.3672 36.7219 28.0706C36.3179 30.5788 36.5651 30.7743 38.5277 29.4979C39.2084 29.0552 39.8694 28.6941 39.9966 28.6955C40.1239 28.6968 40.735 29.0261 41.3547 29.4273C42.5465 30.1987 43.3058 30.383 43.4767 29.942C43.5224 29.824 43.4161 29.0121 43.2405 28.1378L42.9213 26.5482L43.7242 25.8588C44.9991 24.764 45.2659 24.4739 45.2659 24.1826C45.2659 23.7451 44.7606 23.5344 43.1977 23.3201C42.3927 23.2098 41.6875 23.0713 41.6307 23.0123C41.5738 22.9534 41.3116 22.3722 41.0479 21.7207C40.3587 20.0182 39.9824 19.7048 39.3953 20.3439ZM21.2183 21.156C21.2183 21.6352 21.7289 24.4507 22.0423 25.6994C22.5441 27.6989 23.268 29.2144 24.1292 30.069C25.0671 30.9997 25.6433 31.2557 26.9615 31.3273C27.571 31.3604 28.0698 31.3472 28.0698 31.2981C28.0698 31.2489 27.8015 30.7474 27.4737 30.1837C26.493 28.4972 25.4895 25.9222 24.6502 22.9385C24.5319 22.5178 24.4216 22.173 24.4052 22.1724C24.3888 22.1718 23.7708 21.9602 23.0319 21.7018C21.2103 21.0651 21.2183 21.0675 21.2183 21.156ZM57.2225 21.592C56.5206 21.8487 55.8401 22.0916 55.7103 22.1318C55.561 22.1781 55.3975 22.4801 55.265 22.9542C54.3739 26.1436 53.2762 28.8743 52.1157 30.7887L51.6922 31.4872L52.4086 31.4864C53.4313 31.4853 54.0855 31.279 55.0058 30.6667C55.833 30.1165 56.447 29.4171 56.918 28.4886C57.5089 27.3235 58.2152 24.6457 58.496 22.5061C58.5439 22.1402 58.6143 21.6761 58.6525 21.4749C58.6905 21.2736 58.6716 21.1127 58.6102 21.1171C58.5489 21.1216 57.9245 21.3353 57.2225 21.592ZM30.2799 59.1468C30.2466 59.1798 30.2193 60.0649 30.2193 61.1139V63.0209H39.8722H49.5251L49.6063 61.9787C49.6509 61.4055 49.6509 60.5049 49.6061 59.9773L49.525 59.0183L39.9327 59.0525C34.657 59.0714 30.3132 59.1138 30.2799 59.1468Z" fill="#38302E"/>
</svg>
