<svg width="48" height="59" viewBox="0 0 48 59" fill="none" xmlns="http://www.w3.org/2000/svg">
<path fill-rule="evenodd" clip-rule="evenodd" d="M10.5191 1.11068C9.75899 1.37198 8.89924 2.00828 8.50854 2.59874C8.13481 3.16341 7.48687 4.95568 7.48378 5.43287C7.4828 5.59899 7.44425 5.87529 7.39827 6.04688C7.32916 6.30482 7.2679 6.33398 7.04557 6.21496C6.45763 5.90039 4.98666 5.49553 4.17065 5.4239C2.67333 5.29254 1.10465 6.0745 0.374569 7.3164C-0.00519293 7.96265 -0.0137449 8.02433 0.00588104 10.0105C0.0393853 13.4286 0.902927 17.3905 2.19628 20.0605C3.63346 23.0278 6.01689 25.1861 8.60723 25.8664C9.61713 26.1315 12.1626 26.0955 13.3326 25.7994C13.8883 25.6588 14.3998 25.5657 14.4692 25.5925C14.6869 25.6765 16.2463 27.56 16.9394 28.5762C17.7601 29.779 18.843 31.9294 19.2386 33.1411C19.8801 35.1057 19.9789 35.8943 20.0594 39.6841L20.1373 43.3533L18.1223 43.399C16.1579 43.4436 16.0941 43.4546 15.5885 43.8414C14.9918 44.2978 14.4352 45.3355 14.5277 45.8191C14.5905 46.1477 14.5826 46.1497 13.036 46.1996C11.2242 46.2582 10.6176 46.5219 10.1396 47.4589C9.87184 47.9837 9.86021 48.2382 9.89862 52.7479L9.93899 57.4855L10.3221 57.9875C11.0861 58.9887 10.4739 58.9482 24.1678 58.9043C36.145 58.866 36.4452 58.8585 36.9099 58.5847C37.1718 58.4305 37.5188 58.1263 37.681 57.9087C37.9654 57.5275 37.9775 57.3405 38.0164 52.7505C38.0564 48.0345 38.0537 47.9822 37.7414 47.4265C37.231 46.5182 36.6847 46.2721 34.9837 46.184L33.5211 46.1082L33.3314 45.3648C33.1007 44.4613 32.8091 44.0454 32.1393 43.6645C31.6922 43.4102 31.3928 43.3746 29.703 43.3746H27.7764L27.8523 40.2555C28.0093 33.7898 28.8773 31.2178 32.4205 26.7196C33.1464 25.798 33.3975 25.5695 33.6241 25.6239C35.46 26.0638 37.7916 26.1625 39.2377 25.8614C41.7172 25.3451 44.2395 23.0629 45.6787 20.0337C46.3099 18.7052 46.9909 16.5623 47.3608 14.7409C47.641 13.3612 47.999 10.3185 48 9.31039C48.0018 7.20888 46.5083 5.58273 44.4286 5.42193C43.5083 5.35086 42.0475 5.63403 41.043 6.07842L40.4383 6.3459L40.3499 5.83015C40.1373 4.58741 39.8514 3.51738 39.6014 3.02701C39.1711 2.18379 38.2044 1.38278 37.4049 1.20698C36.3099 0.966286 11.2007 0.876286 10.5191 1.11068ZM23.369 9.76516C23.2113 9.93857 22.8787 10.6168 22.6298 11.2721C22.381 11.9275 22.1196 12.5345 22.0489 12.6209C21.9782 12.7074 21.3621 12.8497 20.6796 12.9371C17.8159 13.3044 17.5804 13.8556 19.6101 15.4401C20.1508 15.8622 20.6384 16.2864 20.6937 16.383C20.7491 16.4795 20.6977 17.1648 20.5793 17.906C20.1578 20.5486 20.4157 20.7546 22.4637 19.4098C23.174 18.9434 23.8637 18.5629 23.9965 18.5643C24.1292 18.5657 24.767 18.9127 25.4136 19.3353C26.6572 20.1481 27.4495 20.3423 27.6279 19.8777C27.6755 19.7534 27.5646 18.8979 27.3814 17.9768L27.0483 16.302L27.8861 15.5756C29.2164 14.4221 29.4948 14.1165 29.4948 13.8095C29.4948 13.3486 28.9676 13.1267 27.3367 12.9008C26.4967 12.7846 25.7609 12.6387 25.7016 12.5766C25.6423 12.5145 25.3686 11.9021 25.0934 11.2157C24.3743 9.42198 23.9816 9.09171 23.369 9.76516ZM4.40167 10.6207C4.40167 11.1257 4.93452 14.092 5.26157 15.4076C5.78516 17.5143 6.54048 19.111 7.43921 20.0114C8.41784 20.992 9.0191 21.2618 10.3946 21.3372C11.0306 21.3721 11.5511 21.3582 11.5511 21.3065C11.5511 21.2546 11.2712 20.7262 10.9291 20.1323C9.90577 18.3554 8.85858 15.6424 7.98285 12.4988C7.85934 12.0555 7.74425 11.6923 7.72715 11.6916C7.71004 11.691 7.06519 11.468 6.29417 11.1957C4.3934 10.525 4.40167 10.5275 4.40167 10.6207ZM41.9713 11.0801C41.2389 11.3505 40.5288 11.6065 40.3934 11.6488C40.2375 11.6976 40.0669 12.0158 39.9287 12.5153C38.9988 15.8757 37.8534 18.7527 36.6425 20.7697L36.2006 21.5057L36.9481 21.5048C38.0153 21.5037 38.6979 21.2863 39.6583 20.6411C40.5214 20.0615 41.162 19.3247 41.6535 18.3463C42.2702 17.1189 43.0072 14.2975 43.3001 12.0432C43.3502 11.6577 43.4237 11.1687 43.4635 10.9567C43.5031 10.7446 43.4834 10.5751 43.4193 10.5798C43.3554 10.5845 42.7038 10.8097 41.9713 11.0801ZM13.8573 50.6478C13.8225 50.6826 13.7941 51.6151 13.7941 52.7203V54.7296H23.8667H33.9393L34.0239 53.6315C34.0705 53.0276 34.0705 52.0787 34.0238 51.5229L33.9391 50.5124L23.9298 50.5484C18.4247 50.5683 13.8921 50.613 13.8573 50.6478Z" fill="#FFB200"/>
</svg>
