<svg width="72" height="90" viewBox="0 0 72 90" fill="none" xmlns="http://www.w3.org/2000/svg">
<rect width="72" height="89.948" rx="8" fill="#FF7347"/>
<path fill-rule="evenodd" clip-rule="evenodd" d="M22.5191 16.1367C21.759 16.398 20.8992 17.0343 20.5085 17.6248C20.1348 18.1894 19.4869 19.9817 19.4838 20.4589C19.4828 20.625 19.4443 20.9013 19.3983 21.0729C19.3292 21.3308 19.2679 21.36 19.0456 21.241C18.4576 20.9264 16.9867 20.5216 16.1706 20.4499C14.6733 20.3186 13.1047 21.1005 12.3746 22.3424C11.9948 22.9887 11.9863 23.0504 12.0059 25.0365C12.0394 28.4546 12.9029 32.4166 14.1963 35.0865C15.6335 38.0538 18.0169 40.2121 20.6072 40.8924C21.6171 41.1575 24.1626 41.1215 25.3326 40.8254C25.8883 40.6848 26.3998 40.5917 26.4692 40.6185C26.6869 40.7025 28.2463 42.586 28.9394 43.6022C29.7601 44.805 30.843 46.9555 31.2386 48.1671C31.8801 50.1318 31.9789 50.9203 32.0594 54.7101L32.1373 58.3793L30.1223 58.425C28.1579 58.4696 28.0941 58.4806 27.5885 58.8674C26.9918 59.3239 26.4352 60.3615 26.5277 60.8451C26.5905 61.1737 26.5826 61.1757 25.036 61.2256C23.2242 61.2842 22.6176 61.5479 22.1396 62.4849C21.8718 63.0098 21.8602 63.2642 21.8986 67.774L21.939 72.5115L22.3221 73.0135C23.0861 74.0147 22.4739 73.9742 36.1678 73.9303C48.145 73.8921 48.4452 73.8845 48.9099 73.6107C49.1718 73.4565 49.5188 73.1523 49.681 72.9347C49.9654 72.5536 49.9775 72.3666 50.0164 67.7765C50.0564 63.0605 50.0537 63.0082 49.7414 62.4525C49.231 61.5443 48.6847 61.2981 46.9837 61.2101L45.5211 61.1342L45.3314 60.3908C45.1007 59.4873 44.8091 59.0714 44.1393 58.6905C43.6922 58.4362 43.3928 58.4006 41.703 58.4006H39.7764L39.8523 55.2815C40.0093 48.8159 40.8773 46.2439 44.4205 41.7456C45.1464 40.824 45.3975 40.5955 45.6241 40.6499C47.46 41.0898 49.7916 41.1885 51.2377 40.8874C53.7172 40.3711 56.2395 38.0889 57.6787 35.0597C58.3099 33.7312 58.9909 31.5883 59.3608 29.7669C59.641 28.3872 59.999 25.3445 60 24.3364C60.0018 22.2349 58.5083 20.6087 56.4286 20.448C55.5083 20.3769 54.0475 20.6601 53.043 21.1044L52.4383 21.3719L52.3499 20.8562C52.1373 19.6134 51.8514 18.5434 51.6014 18.053C51.1711 17.2098 50.2044 16.4088 49.4049 16.233C48.3099 15.9923 23.2007 15.9023 22.5191 16.1367ZM35.369 24.7912C35.2113 24.9646 34.8787 25.6428 34.6298 26.2982C34.381 26.9535 34.1196 27.5605 34.0489 27.6469C33.9782 27.7334 33.3621 27.8757 32.6796 27.9632C29.8159 28.3304 29.5804 28.8816 31.6101 30.4662C32.1508 30.8883 32.6384 31.3125 32.6937 31.409C32.7491 31.5055 32.6977 32.1909 32.5793 32.932C32.1578 35.5747 32.4157 35.7806 34.4637 34.4358C35.174 33.9694 35.8637 33.5889 35.9965 33.5903C36.1292 33.5917 36.767 33.9387 37.4136 34.3613C38.6572 35.1741 39.4495 35.3683 39.6279 34.9037C39.6755 34.7794 39.5646 33.924 39.3814 33.0028L39.0483 31.328L39.8861 30.6016C41.2164 29.4481 41.4948 29.1425 41.4948 28.8355C41.4948 28.3746 40.9676 28.1527 39.3367 27.9268C38.4967 27.8106 37.7609 27.6647 37.7016 27.6026C37.6423 27.5405 37.3686 26.9282 37.0934 26.2417C36.3743 24.448 35.9816 24.1177 35.369 24.7912ZM16.4017 25.6467C16.4017 26.1517 16.9345 29.118 17.2616 30.4336C17.7852 32.5403 18.5405 34.1371 19.4392 35.0375C20.4178 36.0181 21.0191 36.2878 22.3946 36.3632C23.0306 36.3981 23.5511 36.3842 23.5511 36.3325C23.5511 36.2806 23.2712 35.7523 22.9291 35.1583C21.9058 33.3815 20.8586 30.6684 19.9828 27.5248C19.8593 27.0815 19.7442 26.7183 19.7271 26.7176C19.71 26.717 19.0652 26.494 18.2942 26.2218C16.3934 25.551 16.4017 25.5535 16.4017 25.6467ZM53.9713 26.1061C53.2389 26.3765 52.5288 26.6325 52.3934 26.6748C52.2375 26.7236 52.0669 27.0419 51.9287 27.5413C50.9988 30.9017 49.8534 33.7787 48.6425 35.7957L48.2006 36.5317L48.9481 36.5309C50.0153 36.5297 50.6979 36.3123 51.6583 35.6672C52.5214 35.0875 53.162 34.3507 53.6535 33.3723C54.2702 32.1449 55.0072 29.3235 55.3001 27.0692C55.3502 26.6837 55.4237 26.1947 55.4635 25.9828C55.5031 25.7707 55.4834 25.6012 55.4193 25.6058C55.3554 25.6106 54.7038 25.8357 53.9713 26.1061ZM25.8573 65.6738C25.8225 65.7086 25.7941 66.6411 25.7941 67.7463V69.7556H35.8667H45.9393L46.0239 68.6575C46.0705 68.0536 46.0705 67.1047 46.0238 66.5489L45.9391 65.5384L35.9298 65.5744C30.4247 65.5944 25.8921 65.6391 25.8573 65.6738Z" fill="#38302E"/>
</svg>
