<svg width="24" height="25" viewBox="0 0 24 25" fill="none" xmlns="http://www.w3.org/2000/svg">
<mask id="mask0_67_254" style="mask-type:alpha" maskUnits="userSpaceOnUse" x="0" y="0" width="24" height="25">
<rect y="0.947937" width="24" height="24" fill="#38302E"/>
</mask>
<g mask="url(#mask0_67_254)">
<path d="M9 16.9479H11V8.94794H9V16.9479ZM13 16.9479H15V8.94794H13V16.9479ZM12 22.9479C10.6167 22.9479 9.31667 22.6854 8.1 22.1604C6.88333 21.6354 5.825 20.9229 4.925 20.0229C4.025 19.1229 3.3125 18.0646 2.7875 16.8479C2.2625 15.6313 2 14.3313 2 12.9479C2 11.5646 2.2625 10.2646 2.7875 9.04794C3.3125 7.83127 4.025 6.77294 4.925 5.87294C5.825 4.97294 6.88333 4.26044 8.1 3.73544C9.31667 3.21044 10.6167 2.94794 12 2.94794C13.3833 2.94794 14.6833 3.21044 15.9 3.73544C17.1167 4.26044 18.175 4.97294 19.075 5.87294C19.975 6.77294 20.6875 7.83127 21.2125 9.04794C21.7375 10.2646 22 11.5646 22 12.9479C22 14.3313 21.7375 15.6313 21.2125 16.8479C20.6875 18.0646 19.975 19.1229 19.075 20.0229C18.175 20.9229 17.1167 21.6354 15.9 22.1604C14.6833 22.6854 13.3833 22.9479 12 22.9479ZM12 20.9479C14.2333 20.9479 16.125 20.1729 17.675 18.6229C19.225 17.0729 20 15.1813 20 12.9479C20 10.7146 19.225 8.82294 17.675 7.27294C16.125 5.72294 14.2333 4.94794 12 4.94794C9.76667 4.94794 7.875 5.72294 6.325 7.27294C4.775 8.82294 4 10.7146 4 12.9479C4 15.1813 4.775 17.0729 6.325 18.6229C7.875 20.1729 9.76667 20.9479 12 20.9479Z" fill="#38302E"/>
</g>
</svg>
