<svg width="24" height="25" viewBox="0 0 24 25" fill="none" xmlns="http://www.w3.org/2000/svg">
<mask id="mask0_67_257" style="mask-type:alpha" maskUnits="userSpaceOnUse" x="0" y="0" width="24" height="25">
<rect y="0.947937" width="24" height="24" fill="#38302E"/>
</mask>
<g mask="url(#mask0_67_257)">
<path d="M11 21.8979C8.98333 21.6479 7.3125 20.7688 5.9875 19.2604C4.6625 17.7521 4 15.9813 4 13.9479C4 12.8479 4.21667 11.7938 4.65 10.7854C5.08333 9.7771 5.7 8.89794 6.5 8.14794L7.925 9.57294C7.29167 10.1396 6.8125 10.7979 6.4875 11.5479C6.1625 12.2979 6 13.0979 6 13.9479C6 15.4146 6.46667 16.7104 7.4 17.8354C8.33333 18.9604 9.53333 19.6479 11 19.8979V21.8979ZM13 21.8979V19.8979C14.45 19.6313 15.6458 18.9396 16.5875 17.8229C17.5292 16.7063 18 15.4146 18 13.9479C18 12.2813 17.4167 10.8646 16.25 9.69794C15.0833 8.53127 13.6667 7.94794 12 7.94794H11.925L13.025 9.04794L11.625 10.4479L8.125 6.94794L11.625 3.44794L13.025 4.84794L11.925 5.94794H12C14.2333 5.94794 16.125 6.72294 17.675 8.27294C19.225 9.82294 20 11.7146 20 13.9479C20 15.9646 19.3375 17.7271 18.0125 19.2354C16.6875 20.7438 15.0167 21.6313 13 21.8979Z" fill="#38302E"/>
</g>
</svg>
