<svg width="25" height="25" viewBox="0 0 25 25" fill="none" xmlns="http://www.w3.org/2000/svg">
<mask id="mask0_67_251" style="mask-type:alpha" maskUnits="userSpaceOnUse" x="0" y="0" width="25" height="25">
<rect x="0.5" y="0.947937" width="24" height="24" fill="#38302E"/>
</mask>
<g mask="url(#mask0_67_251)">
<path d="M10 17.4479L17 12.9479L10 8.44794V17.4479ZM12.5 22.9479C11.1167 22.9479 9.81667 22.6854 8.6 22.1604C7.38333 21.6354 6.325 20.9229 5.425 20.0229C4.525 19.1229 3.8125 18.0646 3.2875 16.8479C2.7625 15.6313 2.5 14.3313 2.5 12.9479C2.5 11.5646 2.7625 10.2646 3.2875 9.04794C3.8125 7.83127 4.525 6.77294 5.425 5.87294C6.325 4.97294 7.38333 4.26044 8.6 3.73544C9.81667 3.21044 11.1167 2.94794 12.5 2.94794C13.8833 2.94794 15.1833 3.21044 16.4 3.73544C17.6167 4.26044 18.675 4.97294 19.575 5.87294C20.475 6.77294 21.1875 7.83127 21.7125 9.04794C22.2375 10.2646 22.5 11.5646 22.5 12.9479C22.5 14.3313 22.2375 15.6313 21.7125 16.8479C21.1875 18.0646 20.475 19.1229 19.575 20.0229C18.675 20.9229 17.6167 21.6354 16.4 22.1604C15.1833 22.6854 13.8833 22.9479 12.5 22.9479ZM12.5 20.9479C14.7333 20.9479 16.625 20.1729 18.175 18.6229C19.725 17.0729 20.5 15.1813 20.5 12.9479C20.5 10.7146 19.725 8.82294 18.175 7.27294C16.625 5.72294 14.7333 4.94794 12.5 4.94794C10.2667 4.94794 8.375 5.72294 6.825 7.27294C5.275 8.82294 4.5 10.7146 4.5 12.9479C4.5 15.1813 5.275 17.0729 6.825 18.6229C8.375 20.1729 10.2667 20.9479 12.5 20.9479Z" fill="#38302E"/>
</g>
</svg>
